<svg width="600" height="600" viewBox="0 0 600 600" fill="none" xmlns="http://www.w3.org/2000/svg">
<rect width="600" height="600" rx="13" fill="url(#paint0_linear_928_4)"/>
<g filter="url(#filter0_d_928_4)">
<path d="M92.0947 307.149H104.058C103.898 310.613 102.964 313.666 101.255 316.31C99.5459 318.953 97.1761 321.015 94.1455 322.496C91.1377 323.954 87.583 324.684 83.4814 324.684C80.1546 324.684 77.181 324.125 74.5605 323.009C71.9629 321.892 69.7526 320.286 67.9297 318.189C66.1296 316.093 64.751 313.552 63.7939 310.567C62.8597 307.582 62.3926 304.221 62.3926 300.484V297.784C62.3926 294.047 62.8825 290.686 63.8623 287.701C64.8649 284.693 66.2777 282.141 68.1006 280.045C69.9463 277.926 72.1566 276.308 74.7314 275.191C77.3063 274.075 80.166 273.517 83.3105 273.517C87.64 273.517 91.2972 274.291 94.2822 275.841C97.2673 277.39 99.5801 279.521 101.221 282.232C102.861 284.921 103.83 287.986 104.126 291.427H92.1631C92.1175 289.558 91.7985 287.997 91.2061 286.744C90.6136 285.468 89.6794 284.511 88.4033 283.873C87.1273 283.235 85.4297 282.916 83.3105 282.916C81.8294 282.916 80.542 283.189 79.4482 283.736C78.3545 284.283 77.443 285.149 76.7139 286.334C75.9847 287.519 75.4378 289.057 75.0732 290.948C74.7314 292.817 74.5605 295.073 74.5605 297.716V300.484C74.5605 303.128 74.7201 305.383 75.0391 307.252C75.3581 309.12 75.8708 310.647 76.5771 311.832C77.2835 313.017 78.195 313.894 79.3115 314.464C80.4508 315.011 81.8408 315.284 83.4814 315.284C85.3044 315.284 86.8424 314.999 88.0957 314.43C89.349 313.837 90.3174 312.949 91.001 311.764C91.6846 310.556 92.0492 309.018 92.0947 307.149ZM151.841 298.126V300.143C151.841 303.948 151.305 307.366 150.234 310.396C149.186 313.404 147.694 315.979 145.757 318.121C143.82 320.24 141.53 321.869 138.887 323.009C136.243 324.125 133.327 324.684 130.137 324.684C126.924 324.684 123.984 324.125 121.318 323.009C118.675 321.869 116.374 320.24 114.414 318.121C112.477 315.979 110.973 313.404 109.902 310.396C108.854 307.366 108.33 303.948 108.33 300.143V298.126C108.33 294.321 108.854 290.903 109.902 287.872C110.973 284.841 112.466 282.267 114.38 280.147C116.317 278.006 118.607 276.376 121.25 275.26C123.916 274.12 126.855 273.551 130.068 273.551C133.258 273.551 136.175 274.12 138.818 275.26C141.484 276.376 143.786 278.006 145.723 280.147C147.66 282.267 149.163 284.841 150.234 287.872C151.305 290.903 151.841 294.321 151.841 298.126ZM139.673 300.143V298.058C139.673 295.597 139.456 293.432 139.023 291.563C138.613 289.672 137.998 288.089 137.178 286.812C136.357 285.536 135.343 284.579 134.136 283.941C132.951 283.281 131.595 282.95 130.068 282.95C128.473 282.95 127.083 283.281 125.898 283.941C124.714 284.579 123.722 285.536 122.925 286.812C122.127 288.089 121.523 289.672 121.113 291.563C120.726 293.432 120.532 295.597 120.532 298.058V300.143C120.532 302.581 120.726 304.745 121.113 306.637C121.523 308.505 122.127 310.089 122.925 311.388C123.745 312.687 124.748 313.666 125.933 314.327C127.14 314.988 128.542 315.318 130.137 315.318C131.663 315.318 133.019 314.988 134.204 314.327C135.389 313.666 136.38 312.687 137.178 311.388C137.998 310.089 138.613 308.505 139.023 306.637C139.456 304.745 139.673 302.581 139.673 300.143ZM164.009 274.234H173.784L184.893 308.858L196.001 274.234H205.776L188.857 324H180.928L164.009 274.234ZM158.062 274.234H168.179L170.059 312.379V324H158.062V274.234ZM201.606 274.234H211.758V324H199.727V312.379L201.606 274.234ZM232.197 274.234V324H220.234V274.234H232.197ZM282.202 274.234V324H270.239L252.637 293.033V324H240.64V274.234H252.637L270.239 305.201V274.234H282.202ZM330.498 297.408V317.848C329.655 318.782 328.356 319.785 326.602 320.855C324.87 321.904 322.682 322.804 320.039 323.556C317.396 324.308 314.285 324.684 310.708 324.684C307.404 324.684 304.408 324.16 301.719 323.111C299.03 322.04 296.717 320.479 294.78 318.429C292.866 316.355 291.385 313.826 290.337 310.841C289.312 307.833 288.799 304.392 288.799 300.519V297.75C288.799 293.876 289.323 290.436 290.371 287.428C291.419 284.42 292.889 281.891 294.78 279.84C296.694 277.766 298.939 276.194 301.514 275.123C304.111 274.052 306.96 273.517 310.059 273.517C314.639 273.517 318.364 274.246 321.235 275.704C324.106 277.14 326.283 279.133 327.764 281.686C329.245 284.215 330.145 287.143 330.464 290.47H318.945C318.717 288.829 318.285 287.439 317.646 286.3C317.031 285.138 316.143 284.26 314.98 283.668C313.818 283.053 312.314 282.745 310.469 282.745C309.033 282.745 307.723 283.053 306.538 283.668C305.376 284.283 304.385 285.217 303.564 286.471C302.744 287.701 302.106 289.251 301.65 291.119C301.217 292.988 301.001 295.175 301.001 297.682V300.519C301.001 303.002 301.206 305.178 301.616 307.047C302.049 308.915 302.687 310.476 303.53 311.729C304.396 312.96 305.49 313.894 306.812 314.532C308.156 315.147 309.74 315.455 311.562 315.455C312.839 315.455 313.932 315.353 314.844 315.147C315.755 314.92 316.507 314.646 317.1 314.327C317.715 313.985 318.182 313.666 318.501 313.37V305.646H310.161V297.408H330.498ZM380.571 310.772C380.571 309.998 380.457 309.303 380.229 308.688C380.002 308.049 379.58 307.457 378.965 306.91C378.35 306.363 377.461 305.816 376.299 305.27C375.16 304.7 373.656 304.107 371.787 303.492C369.6 302.763 367.492 301.943 365.464 301.031C363.436 300.097 361.624 299.015 360.029 297.784C358.434 296.531 357.17 295.073 356.235 293.409C355.301 291.723 354.834 289.763 354.834 287.53C354.834 285.388 355.312 283.463 356.27 281.754C357.227 280.022 358.56 278.552 360.269 277.345C362 276.114 364.028 275.18 366.353 274.542C368.677 273.881 371.217 273.551 373.975 273.551C377.62 273.551 380.833 274.189 383.613 275.465C386.416 276.718 388.604 278.507 390.176 280.831C391.771 283.132 392.568 285.855 392.568 289H380.64C380.64 287.747 380.378 286.642 379.854 285.685C379.352 284.728 378.589 283.976 377.563 283.429C376.538 282.882 375.251 282.608 373.701 282.608C372.197 282.608 370.933 282.836 369.907 283.292C368.882 283.748 368.107 284.363 367.583 285.138C367.059 285.89 366.797 286.721 366.797 287.633C366.797 288.385 367.002 289.068 367.412 289.684C367.845 290.276 368.449 290.834 369.224 291.358C370.021 291.882 370.978 292.384 372.095 292.862C373.234 293.341 374.51 293.808 375.923 294.264C378.566 295.107 380.913 296.052 382.964 297.101C385.037 298.126 386.781 299.299 388.193 300.621C389.629 301.92 390.711 303.401 391.44 305.064C392.192 306.728 392.568 308.608 392.568 310.704C392.568 312.937 392.135 314.92 391.27 316.651C390.404 318.383 389.162 319.853 387.544 321.061C385.926 322.245 383.989 323.146 381.733 323.761C379.478 324.376 376.96 324.684 374.18 324.684C371.628 324.684 369.11 324.365 366.626 323.727C364.165 323.066 361.932 322.063 359.927 320.719C357.922 319.352 356.315 317.608 355.107 315.489C353.923 313.347 353.33 310.807 353.33 307.867H365.361C365.361 309.326 365.555 310.556 365.942 311.559C366.33 312.561 366.899 313.37 367.651 313.985C368.403 314.578 369.326 315.011 370.42 315.284C371.514 315.535 372.767 315.66 374.18 315.66C375.706 315.66 376.937 315.444 377.871 315.011C378.805 314.555 379.489 313.963 379.922 313.233C380.355 312.481 380.571 311.661 380.571 310.772ZM440.864 298.126V300.143C440.864 303.948 440.329 307.366 439.258 310.396C438.21 313.404 436.717 315.979 434.78 318.121C432.843 320.24 430.553 321.869 427.91 323.009C425.267 324.125 422.35 324.684 419.16 324.684C415.947 324.684 413.008 324.125 410.342 323.009C407.699 321.869 405.397 320.24 403.438 318.121C401.501 315.979 399.997 313.404 398.926 310.396C397.878 307.366 397.354 303.948 397.354 300.143V298.126C397.354 294.321 397.878 290.903 398.926 287.872C399.997 284.841 401.489 282.267 403.403 280.147C405.34 278.006 407.63 276.376 410.273 275.26C412.939 274.12 415.879 273.551 419.092 273.551C422.282 273.551 425.199 274.12 427.842 275.26C430.508 276.376 432.809 278.006 434.746 280.147C436.683 282.267 438.187 284.841 439.258 287.872C440.329 290.903 440.864 294.321 440.864 298.126ZM428.696 300.143V298.058C428.696 295.597 428.48 293.432 428.047 291.563C427.637 289.672 427.021 288.089 426.201 286.812C425.381 285.536 424.367 284.579 423.159 283.941C421.974 283.281 420.618 282.95 419.092 282.95C417.497 282.95 416.107 283.281 414.922 283.941C413.737 284.579 412.746 285.536 411.948 286.812C411.151 288.089 410.547 289.672 410.137 291.563C409.749 293.432 409.556 295.597 409.556 298.058V300.143C409.556 302.581 409.749 304.745 410.137 306.637C410.547 308.505 411.151 310.089 411.948 311.388C412.769 312.687 413.771 313.666 414.956 314.327C416.164 314.988 417.565 315.318 419.16 315.318C420.687 315.318 422.043 314.988 423.228 314.327C424.412 313.666 425.404 312.687 426.201 311.388C427.021 310.089 427.637 308.505 428.047 306.637C428.48 304.745 428.696 302.581 428.696 300.143ZM489.194 298.126V300.143C489.194 303.948 488.659 307.366 487.588 310.396C486.54 313.404 485.047 315.979 483.11 318.121C481.174 320.24 478.883 321.869 476.24 323.009C473.597 324.125 470.68 324.684 467.49 324.684C464.277 324.684 461.338 324.125 458.672 323.009C456.029 321.869 453.727 320.24 451.768 318.121C449.831 315.979 448.327 313.404 447.256 310.396C446.208 307.366 445.684 303.948 445.684 300.143V298.126C445.684 294.321 446.208 290.903 447.256 287.872C448.327 284.841 449.819 282.267 451.733 280.147C453.67 278.006 455.96 276.376 458.604 275.26C461.27 274.12 464.209 273.551 467.422 273.551C470.612 273.551 473.529 274.12 476.172 275.26C478.838 276.376 481.139 278.006 483.076 280.147C485.013 282.267 486.517 284.841 487.588 287.872C488.659 290.903 489.194 294.321 489.194 298.126ZM477.026 300.143V298.058C477.026 295.597 476.81 293.432 476.377 291.563C475.967 289.672 475.352 288.089 474.531 286.812C473.711 285.536 472.697 284.579 471.489 283.941C470.304 283.281 468.949 282.95 467.422 282.95C465.827 282.95 464.437 283.281 463.252 283.941C462.067 284.579 461.076 285.536 460.278 286.812C459.481 288.089 458.877 289.672 458.467 291.563C458.079 293.432 457.886 295.597 457.886 298.058V300.143C457.886 302.581 458.079 304.745 458.467 306.637C458.877 308.505 459.481 310.089 460.278 311.388C461.099 312.687 462.101 313.666 463.286 314.327C464.494 314.988 465.895 315.318 467.49 315.318C469.017 315.318 470.373 314.988 471.558 314.327C472.743 313.666 473.734 312.687 474.531 311.388C475.352 310.089 475.967 308.505 476.377 306.637C476.81 304.745 477.026 302.581 477.026 300.143ZM536.978 274.234V324H525.015L507.412 293.033V324H495.415V274.234H507.412L525.015 305.201V274.234H536.978Z" fill="white"/>
</g>
<defs>
<filter id="filter0_d_928_4" x="62.3926" y="273.517" width="488.585" height="65.167" filterUnits="userSpaceOnUse" color-interpolation-filters="sRGB">
<feFlood flood-opacity="0" result="BackgroundImageFix"/>
<feColorMatrix in="SourceAlpha" type="matrix" values="0 0 0 0 0 0 0 0 0 0 0 0 0 0 0 0 0 0 127 0" result="hardAlpha"/>
<feOffset dx="10" dy="10"/>
<feGaussianBlur stdDeviation="2"/>
<feComposite in2="hardAlpha" operator="out"/>
<feColorMatrix type="matrix" values="0 0 0 0 0 0 0 0 0 0 0 0 0 0 0 0 0 0 0.33 0"/>
<feBlend mode="normal" in2="BackgroundImageFix" result="effect1_dropShadow_928_4"/>
<feBlend mode="normal" in="SourceGraphic" in2="effect1_dropShadow_928_4" result="shape"/>
</filter>
<linearGradient id="paint0_linear_928_4" x1="300" y1="0" x2="300" y2="600" gradientUnits="userSpaceOnUse">
<stop stop-color="#263238"/>
<stop offset="1" stop-color="white" stop-opacity="0"/>
</linearGradient>
</defs>
</svg>
