<svg width="60" height="59" viewBox="0 0 60 59" fill="none" xmlns="http://www.w3.org/2000/svg">
<rect y="0.327103" width="60" height="58.3178" rx="29.1589" fill="white"/>
<path d="M23.8755 25.8147C23.3058 25.8147 22.7972 25.9367 22.3496 26.1809C21.902 26.4169 21.5195 26.7627 21.2021 27.2185C20.8848 27.6742 20.6406 28.2317 20.4697 28.8908C20.307 29.5419 20.2256 30.2824 20.2256 31.1125C20.2256 32.2356 20.368 33.1796 20.6528 33.9445C20.9377 34.7095 21.369 35.2873 21.9468 35.6779C22.5327 36.0686 23.2651 36.2639 24.144 36.2639C24.9416 36.2639 25.7065 36.154 26.439 35.9343C27.1795 35.7146 27.9242 35.4501 28.6729 35.1408V39.218C27.8835 39.5679 27.0737 39.8202 26.2437 39.9748C25.4217 40.1294 24.5469 40.2068 23.6191 40.2068C21.6823 40.2068 20.0954 39.8243 18.8584 39.0593C17.6296 38.2862 16.7222 37.216 16.1362 35.8488C15.5584 34.4817 15.2695 32.8947 15.2695 31.0881C15.2695 29.7372 15.4567 28.5002 15.8311 27.3772C16.2135 26.2541 16.771 25.2816 17.5034 24.4597C18.2358 23.6296 19.1392 22.9908 20.2134 22.5432C21.2957 22.0875 22.5327 21.8596 23.9243 21.8596C24.7869 21.8596 25.6943 21.9613 26.6465 22.1648C27.6068 22.3601 28.5426 22.6775 29.4541 23.1169L27.9771 26.9133C27.326 26.6041 26.6668 26.3436 25.9995 26.132C25.3322 25.9205 24.6242 25.8147 23.8755 25.8147ZM38.5361 28.7321L41.6123 22.1159H46.8369L40.9653 32.9924V39.9626H36.1069V33.1389L30.2354 22.1159H35.4844L38.5361 28.7321Z" fill="#26151B"/>
</svg>
