<svg width="868" height="615" viewBox="0 0 868 615" fill="none" xmlns="http://www.w3.org/2000/svg">
<g clip-path="url(#clip0_853_2)">
<path d="M363.671 112.783V264.877C363.671 269.849 361.697 274.617 358.182 278.133C354.667 281.65 349.9 283.627 344.928 283.629H77.4155C72.4436 283.627 67.6762 281.65 64.1613 278.133C60.6464 274.617 58.6719 269.849 58.6719 264.877V112.783C58.6719 112.335 58.6719 111.938 58.7311 111.465C59.0604 106.734 61.1718 102.303 64.6394 99.0676C68.1071 95.8319 72.6728 94.0319 77.4155 94.0305H344.928C349.676 94.0325 354.246 95.8372 357.715 99.0799C361.183 102.323 363.291 106.761 363.612 111.499C363.654 111.904 363.671 112.343 363.671 112.783Z" fill="white" stroke="#263238" stroke-width="1.10311" stroke-linecap="round" stroke-linejoin="round"/>
<path d="M67.7946 118.493H355.503V258.989C355.503 263.649 353.652 268.118 350.357 271.413C347.062 274.708 342.593 276.559 337.934 276.559H85.3725C80.7128 276.559 76.2439 274.708 72.949 271.413C69.6541 268.118 67.803 263.649 67.803 258.989V118.493H67.7946Z" fill="#263238"/>
<path opacity="0.2" d="M355.512 118.493V258.989C355.536 263.623 353.72 268.077 350.462 271.371C347.203 274.666 342.77 276.532 338.136 276.559H85.1698C80.5361 276.532 76.1028 274.666 72.8446 271.371C69.5863 268.077 67.7698 263.623 67.7946 258.989V118.493H355.512Z" fill="white"/>
<path d="M363.612 111.499H58.7311C59.0604 106.767 61.1718 102.337 64.6394 99.1014C68.1071 95.8657 72.6728 94.0657 77.4155 94.0643H344.928C349.67 94.0657 354.236 95.8657 357.704 99.1014C361.171 102.337 363.283 106.767 363.612 111.499Z" fill="#BF6969" stroke="#263238" stroke-width="1.10311" stroke-miterlimit="10"/>
<path d="M96.1929 102.748C96.1929 103.404 95.9982 104.046 95.6334 104.592C95.2687 105.138 94.7502 105.563 94.1436 105.815C93.5371 106.066 92.8696 106.132 92.2256 106.003C91.5817 105.875 90.9902 105.559 90.5259 105.095C90.0617 104.631 89.7455 104.039 89.6174 103.395C89.4893 102.751 89.5551 102.084 89.8063 101.477C90.0576 100.871 90.4831 100.352 91.029 99.9875C91.5749 99.6227 92.2167 99.428 92.8733 99.428C93.7537 99.428 94.598 99.7778 95.2206 100.4C95.8431 101.023 96.1929 101.867 96.1929 102.748Z" fill="#263238"/>
<path d="M110.232 102.748C110.232 103.404 110.037 104.046 109.672 104.592C109.307 105.138 108.789 105.563 108.182 105.815C107.576 106.066 106.908 106.132 106.264 106.003C105.62 105.875 105.029 105.559 104.565 105.095C104.1 104.631 103.784 104.039 103.656 103.395C103.528 102.751 103.594 102.084 103.845 101.477C104.096 100.871 104.522 100.352 105.068 99.9875C105.614 99.6227 106.255 99.428 106.912 99.428C107.792 99.428 108.637 99.7778 109.259 100.4C109.882 101.023 110.232 101.867 110.232 102.748Z" fill="#263238"/>
<path d="M120.951 106.067C122.784 106.067 124.27 104.581 124.27 102.748C124.27 100.914 122.784 99.428 120.951 99.428C119.117 99.428 117.631 100.914 117.631 102.748C117.631 104.581 119.117 106.067 120.951 106.067Z" fill="#263238"/>
<path d="M355.503 118.493V258.989C355.503 263.649 353.652 268.118 350.357 271.413C347.062 274.708 342.593 276.559 337.934 276.559H85.3725C81.3056 276.558 77.3649 275.146 74.2226 272.565C71.0802 269.983 68.9308 266.391 68.1409 262.402V262.351C67.9261 261.238 67.8187 260.106 67.8199 258.972V118.493H355.503Z" stroke="#263238" stroke-width="1.10311" stroke-miterlimit="10"/>
<path d="M355.233 140.218C354.001 139.526 352.691 138.985 351.33 138.605L349.751 131.551H343.044L341.481 138.605C340.113 138.978 338.797 139.52 337.562 140.218L331.506 136.341L326.767 141.063L330.577 147.119C329.879 148.354 329.337 149.67 328.963 151.038L321.91 152.601V159.308L328.963 160.887C329.333 162.262 329.875 163.585 330.577 164.824L326.699 170.922L331.447 175.661L337.537 171.784C338.769 172.483 340.082 173.028 341.448 173.406L343.019 180.45H349.7L351.271 173.406C352.633 173.024 353.943 172.48 355.174 171.784L355.486 171.987V140.049L355.233 140.218ZM346.414 164.714C344.7 164.714 343.024 164.205 341.599 163.253C340.173 162.3 339.062 160.946 338.407 159.362C337.751 157.778 337.58 156.035 337.915 154.354C338.25 152.672 339.076 151.128 340.289 149.916C341.502 148.705 343.047 147.88 344.729 147.546C346.411 147.213 348.153 147.386 349.737 148.043C351.32 148.7 352.673 149.812 353.624 151.239C354.576 152.665 355.083 154.341 355.081 156.056C355.081 157.194 354.857 158.32 354.421 159.371C353.985 160.422 353.347 161.377 352.542 162.181C351.737 162.985 350.782 163.623 349.73 164.057C348.679 164.492 347.552 164.715 346.414 164.714Z" fill="#263238"/>
<path d="M234.358 147.018V132.878L219.492 129.575C218.69 126.702 217.556 123.933 216.113 121.322L217.912 118.493H147.719L149.45 121.246C147.99 123.845 146.855 126.614 146.072 129.49L131.197 132.802V146.975L146.072 150.295C146.855 153.193 147.99 155.984 149.45 158.607L141.282 171.454L151.292 181.456L164.131 173.279C166.736 174.744 169.506 175.893 172.384 176.7L175.695 191.524H189.801L193.129 176.666C195.997 175.855 198.759 174.707 201.356 173.245L214.204 181.422L224.205 171.421L216.088 158.573C217.527 155.967 218.66 153.203 219.466 150.337L234.358 147.018ZM182.832 158.218C179.219 158.218 175.686 157.147 172.682 155.139C169.677 153.131 167.335 150.278 165.953 146.939C164.57 143.601 164.208 139.927 164.913 136.383C165.618 132.839 167.358 129.584 169.913 127.028C172.468 124.473 175.724 122.733 179.268 122.028C182.812 121.323 186.486 121.685 189.824 123.068C193.163 124.451 196.016 126.792 198.024 129.797C200.031 132.802 201.103 136.334 201.103 139.948C201.104 142.347 200.632 144.724 199.714 146.941C198.797 149.158 197.451 151.173 195.754 152.869C194.057 154.566 192.043 155.912 189.826 156.83C187.608 157.748 185.232 158.219 182.832 158.218Z" fill="#263238"/>
<path d="M140.539 244.114L141.139 232.888L129.507 229.611C128.967 227.304 128.168 225.066 127.125 222.938L134.153 213.072L126.619 204.718L116.094 210.631C114.082 209.365 111.931 208.336 109.683 207.565L107.672 195.638L96.4548 195.123L93.2112 206.788C90.9001 207.306 88.6597 208.1 86.5381 209.153L76.6807 202.133L68.3098 209.66L74.2733 220.193C72.9948 222.196 71.9625 224.346 71.1986 226.596L67.8199 227.153V242.357L70.2864 243.05C70.7981 245.365 71.5895 247.608 72.6431 249.732L67.7946 256.531L68.1155 262.351V262.402L73.1245 267.951L83.6662 261.996C85.6745 263.288 87.8332 264.329 90.0943 265.096L92.0708 276.55L92.1638 277.032L103.381 277.623L103.677 276.55L106.625 265.966C108.946 265.447 111.198 264.653 113.332 263.601L123.172 270.612L131.535 263.094L125.622 252.553C126.888 250.552 127.907 248.405 128.654 246.159L140.539 244.114ZM110.747 226.587C108.825 224.45 106.313 222.931 103.528 222.221C100.743 221.512 97.8099 221.645 95.1002 222.603C92.3905 223.561 90.0258 225.301 88.3053 227.603C86.5847 229.905 85.5855 232.666 85.4342 235.536C85.2829 238.406 85.9863 241.256 87.4552 243.726C88.9242 246.197 91.0929 248.176 93.6868 249.413C96.2808 250.651 99.1835 251.091 102.028 250.679C104.872 250.266 107.53 249.02 109.666 247.096C112.517 244.52 114.232 240.919 114.434 237.082C114.637 233.244 113.311 229.483 110.747 226.621V226.587Z" fill="#263238"/>
<path d="M230.262 227.381C230.696 225.643 230.925 223.86 230.946 222.068L239.012 217.845L236.783 209.66L227.677 210.082C226.755 208.552 225.658 207.135 224.408 205.859L227.102 197.15L219.754 192.926L213.604 199.633C211.869 199.214 210.093 198.988 208.308 198.957L204.085 190.891L195.908 193.112L196.339 202.226C194.809 203.148 193.392 204.245 192.115 205.495L183.398 202.801L179.175 210.141L185.932 216.282C185.495 218.014 185.271 219.792 185.265 221.578L177.181 225.802L179.411 233.978L188.534 233.547C189.438 235.085 190.531 236.504 191.786 237.771L189.075 246.437L196.432 250.661L202.547 244.005C204.285 244.442 206.069 244.666 207.86 244.672L212.084 252.747L220.26 250.526L219.897 242.738L219.838 241.403C221.389 240.49 222.825 239.392 224.112 238.134L232.821 240.837L236.419 234.553L237.027 233.488L230.262 227.381ZM210.944 232.348C208.847 232.926 206.625 232.869 204.561 232.183C202.497 231.497 200.683 230.213 199.35 228.495C198.016 226.777 197.223 224.701 197.07 222.531C196.918 220.362 197.413 218.195 198.494 216.308C199.574 214.42 201.191 212.895 203.139 211.928C205.087 210.96 207.278 210.593 209.436 210.872C211.593 211.152 213.618 212.066 215.255 213.498C216.892 214.93 218.067 216.817 218.63 218.917C219.381 221.717 218.995 224.701 217.555 227.217C216.115 229.733 213.738 231.577 210.944 232.348Z" fill="#263238"/>
<path d="M323.785 241.775L325.644 230.54L314.274 225.971C314.016 223.576 313.469 221.222 312.644 218.96L320.829 209.845L314.207 200.554L302.921 205.343C301.048 203.841 299 202.571 296.823 201.559L296.164 189.32L284.93 187.461L280.326 198.78C277.942 199.06 275.598 199.613 273.341 200.427L264.201 192.242L254.952 198.865L259.75 210.141C258.429 211.789 257.283 213.57 256.329 215.454C256.202 215.716 256.067 215.978 255.948 216.24L243.717 216.915L241.851 228.133L243.692 228.876L253.22 232.72C253.48 235.103 254.028 237.445 254.85 239.697L246.648 248.87L253.279 258.162L264.556 253.347C266.423 254.862 268.468 256.144 270.646 257.165L271.28 269.345L282.505 271.203L287.101 259.969C289.49 259.708 291.838 259.158 294.095 258.33L303.217 266.515L312.509 259.885L307.711 248.6C309.239 246.724 310.53 244.667 311.554 242.476L323.785 241.775ZM292.278 241.268C289.915 242.963 287.102 243.92 284.195 244.017C281.287 244.114 278.417 243.346 275.946 241.811C273.475 240.277 271.515 238.043 270.313 235.394C269.111 232.746 268.722 229.8 269.195 226.93C269.668 224.059 270.981 221.394 272.968 219.27C274.956 217.146 277.529 215.66 280.361 214.998C283.194 214.337 286.159 214.53 288.882 215.554C291.604 216.578 293.962 218.386 295.657 220.75C297.927 223.921 298.845 227.865 298.208 231.712C297.572 235.56 295.432 238.997 292.262 241.268H292.278Z" fill="#263238"/>
<path d="M171.539 158.607H83.2016C77.0857 158.607 72.1278 163.565 72.1278 169.681V291.983C72.1278 298.099 77.0857 303.057 83.2016 303.057H171.539C177.655 303.057 182.613 298.099 182.613 291.983V169.681C182.613 163.565 177.655 158.607 171.539 158.607Z" fill="#BF6969" stroke="#263238" stroke-width="1.10311" stroke-miterlimit="10"/>
<path opacity="0.2" d="M171.539 158.607H83.2016C77.0857 158.607 72.1278 163.565 72.1278 169.681V291.983C72.1278 298.099 77.0857 303.057 83.2016 303.057H171.539C177.655 303.057 182.613 298.099 182.613 291.983V169.681C182.613 163.565 177.655 158.607 171.539 158.607Z" fill="black"/>
<path d="M192.893 180.594V302.896C192.894 304.351 192.608 305.792 192.052 307.136C191.496 308.481 190.681 309.703 189.652 310.732C188.624 311.761 187.403 312.578 186.059 313.135C184.714 313.692 183.274 313.978 181.819 313.978H93.4815C92.0272 313.977 90.5875 313.69 89.2443 313.132C87.9012 312.575 86.6811 311.758 85.6536 310.729C84.626 309.7 83.8113 308.478 83.2558 307.135C82.7003 305.791 82.415 304.35 82.4161 302.896V180.594C82.4161 177.658 83.5816 174.843 85.6565 172.767C87.7315 170.69 90.546 169.522 93.4815 169.52H181.819C184.756 169.52 187.572 170.687 189.649 172.764C191.726 174.84 192.893 177.657 192.893 180.594Z" fill="white" stroke="#263238" stroke-width="1.10311" stroke-linecap="round" stroke-linejoin="round"/>
<path d="M192.893 180.594V187.14H82.4161V180.594C82.4161 177.658 83.5816 174.843 85.6565 172.767C87.7315 170.69 90.546 169.522 93.4815 169.52H181.819C184.756 169.52 187.572 170.687 189.649 172.764C191.726 174.84 192.893 177.657 192.893 180.594Z" fill="#BF6969" stroke="#263238" stroke-width="1.10311" stroke-miterlimit="10"/>
<path d="M119.988 194.726H92.8057V199.287H119.988V194.726Z" fill="#BF6969"/>
<path d="M119.988 235.6H92.8057V240.161H119.988V235.6Z" fill="#BF6969"/>
<path d="M119.988 272.665H92.8057V277.226H119.988V272.665Z" fill="#BF6969"/>
<path d="M170.002 206.019H92.8057V209.364H170.002V206.019Z" fill="#263238"/>
<path d="M156.081 212.413H92.8057V215.674H156.081V212.413Z" fill="#263238"/>
<path d="M164.368 218.706H92.8057V221.967H164.368V218.706Z" fill="#263238"/>
<path d="M164.368 224.991H92.8057V228.251H164.368V224.991Z" fill="#263238"/>
<path d="M170.002 243.084H92.8057V246.429H170.002V243.084Z" fill="#263238"/>
<path d="M156.081 249.478H92.8057V252.739H156.081V249.478Z" fill="#263238"/>
<path d="M164.368 255.771H92.8057V259.032H164.368V255.771Z" fill="#263238"/>
<path d="M170.002 283.781H92.8057V287.126H170.002V283.781Z" fill="#263238"/>
<path d="M156.081 290.184H92.8057V293.444H156.081V290.184Z" fill="#263238"/>
<path d="M164.368 296.476H92.8057V299.737H164.368V296.476Z" fill="#263238"/>
<path d="M317.408 84.7136V134.145C317.408 135.879 317.066 137.597 316.402 139.199C315.738 140.801 314.765 142.257 313.538 143.483C312.311 144.709 310.855 145.682 309.252 146.345C307.649 147.008 305.931 147.348 304.197 147.347H190.35C188.616 147.348 186.898 147.008 185.295 146.345C183.692 145.682 182.236 144.709 181.009 143.483C179.782 142.257 178.809 140.801 178.145 139.199C177.481 137.597 177.139 135.879 177.139 134.145V84.7136C177.141 81.2105 178.534 77.8516 181.011 75.3746C183.488 72.8975 186.847 71.5049 190.35 71.5027H304.197C307.701 71.5027 311.061 72.8946 313.538 75.3721C316.016 77.8496 317.408 81.2099 317.408 84.7136Z" fill="white" stroke="#222221" stroke-width="1.10311" stroke-miterlimit="10"/>
<path d="M317.408 84.7136V85.8455H177.139V84.7136C177.141 81.2105 178.534 77.8516 181.011 75.3746C183.488 72.8975 186.847 71.5049 190.35 71.5027H304.197C307.701 71.5027 311.061 72.8946 313.538 75.3721C316.016 77.8496 317.408 81.2099 317.408 84.7136Z" fill="#BF6969" stroke="#263238" stroke-width="1.10311" stroke-miterlimit="10"/>
<path d="M197.75 81.0392C197.466 81.3232 197.105 81.5168 196.712 81.5954C196.318 81.674 195.91 81.6342 195.54 81.4809C195.169 81.3276 194.852 81.0678 194.629 80.7343C194.406 80.4008 194.287 80.0086 194.287 79.6075C194.287 79.2063 194.406 78.8142 194.629 78.4807C194.852 78.1472 195.169 77.8874 195.54 77.7341C195.91 77.5808 196.318 77.5409 196.712 77.6195C197.105 77.6982 197.466 77.8917 197.75 78.1757C198.127 78.5569 198.338 79.0713 198.338 79.6075C198.338 80.1436 198.127 80.6581 197.75 81.0392Z" fill="#263238"/>
<path d="M207.143 81.0392C206.859 81.3232 206.498 81.5168 206.105 81.5954C205.711 81.674 205.303 81.6342 204.933 81.4809C204.562 81.3276 204.245 81.0678 204.022 80.7343C203.799 80.4008 203.68 80.0086 203.68 79.6075C203.68 79.2063 203.799 78.8142 204.022 78.4807C204.245 78.1472 204.562 77.8874 204.933 77.7341C205.303 77.5808 205.711 77.5409 206.105 77.6195C206.498 77.6982 206.859 77.8917 207.143 78.1757C207.52 78.5569 207.731 79.0713 207.731 79.6075C207.731 80.1436 207.52 80.6581 207.143 81.0392Z" fill="#263238"/>
<path d="M216.535 81.0392C216.252 81.3232 215.891 81.5168 215.497 81.5954C215.104 81.674 214.696 81.6342 214.326 81.4809C213.955 81.3276 213.638 81.0678 213.415 80.7343C213.192 80.4008 213.073 80.0086 213.073 79.6075C213.073 79.2063 213.192 78.8142 213.415 78.4807C213.638 78.1472 213.955 77.8874 214.326 77.7341C214.696 77.5808 215.104 77.5409 215.497 77.6195C215.891 77.6982 216.252 77.8917 216.535 78.1757C216.912 78.5569 217.124 79.0713 217.124 79.6075C217.124 80.1436 216.912 80.6581 216.535 81.0392Z" fill="#263238"/>
<path d="M231.934 94.9343H186.084V134.567H231.934V94.9343Z" stroke="#263238" stroke-width="1.10311" stroke-linecap="round" stroke-linejoin="round" stroke-dasharray="4.41 4.41"/>
<path d="M291.78 94.9343H239.013V97.7218H291.78V94.9343Z" fill="#263238"/>
<path d="M279.49 100.704H239.013V103.483H279.49V100.704Z" fill="#263238"/>
<path d="M299.281 106.447H239.013V109.26H299.281V106.447Z" fill="#263238"/>
<path d="M290.336 112.048H239.013V114.86H290.336V112.048Z" fill="#263238"/>
<path d="M321.243 207.396H295.438C292.391 207.396 289.922 209.865 289.922 212.912V228.057C289.922 231.103 292.391 233.573 295.438 233.573H321.243C324.289 233.573 326.759 231.103 326.759 228.057V212.912C326.759 209.865 324.289 207.396 321.243 207.396Z" fill="white" stroke="#263238" stroke-width="1.10311" stroke-linecap="round" stroke-linejoin="round"/>
<path d="M301.807 215.268L294.72 219.711L301.3 225.54" stroke="#263238" stroke-width="1.10311" stroke-linecap="round" stroke-linejoin="round"/>
<path d="M314.713 225.962L321.082 220.539L313.734 215.724" stroke="#263238" stroke-width="1.10311" stroke-linecap="round" stroke-linejoin="round"/>
<path d="M305.253 229.307L310.481 212.903" stroke="#263238" stroke-width="1.10311" stroke-linecap="round" stroke-linejoin="round"/>
</g>
<path d="M806.456 260.384C806.347 260.383 806.241 260.349 806.154 260.285C775.443 239.97 735.19 236.393 688.554 232.255C658.179 229.559 623.773 226.5 586.634 218.411C492.99 198.03 440.597 130.856 440.082 130.174C439.996 130.062 439.956 129.923 439.97 129.784C439.985 129.645 440.053 129.517 440.16 129.425C440.28 129.341 440.428 129.305 440.575 129.325C440.721 129.346 440.853 129.421 440.944 129.535C441.47 130.207 493.584 197.073 586.858 217.366C623.963 225.443 658.336 228.492 688.677 231.188C735.426 235.348 775.813 238.891 806.747 259.405C806.871 259.487 806.956 259.614 806.986 259.758C807.015 259.902 806.986 260.052 806.904 260.175C806.85 260.24 806.781 260.293 806.704 260.329C806.626 260.365 806.542 260.384 806.456 260.384Z" fill="#BF6969"/>
<path d="M790.44 277.288C790.327 277.288 790.217 277.254 790.126 277.189C759.416 256.873 719.174 253.297 672.526 249.159C642.152 246.463 607.746 243.403 570.606 235.304C476.963 214.923 424.57 147.749 424.054 147.033C424.009 146.976 423.975 146.91 423.956 146.84C423.937 146.77 423.933 146.697 423.943 146.625C423.954 146.553 423.979 146.484 424.017 146.421C424.056 146.359 424.106 146.305 424.166 146.263C424.225 146.22 424.292 146.188 424.363 146.17C424.435 146.152 424.509 146.148 424.582 146.158C424.654 146.169 424.724 146.193 424.788 146.23C424.851 146.266 424.906 146.315 424.95 146.373C425.466 147.044 477.59 213.899 570.853 234.203C607.958 242.281 642.331 245.329 672.672 248.026C719.421 252.185 759.808 255.729 790.742 276.242C790.866 276.325 790.951 276.452 790.981 276.596C791.01 276.74 790.981 276.889 790.899 277.013C790.852 277.093 790.786 277.16 790.705 277.208C790.625 277.256 790.534 277.283 790.44 277.288Z" fill="#BF6969"/>
<path d="M774.413 294.18C774.3 294.181 774.19 294.146 774.099 294.081C743.389 273.766 703.147 270.189 656.499 266.052C626.125 263.355 591.718 260.296 554.579 252.196C460.936 231.771 408.542 164.641 408.027 163.959C407.983 163.901 407.951 163.835 407.933 163.765C407.914 163.695 407.91 163.622 407.921 163.551C407.931 163.479 407.956 163.411 407.993 163.348C408.031 163.286 408.08 163.232 408.139 163.188C408.198 163.145 408.265 163.114 408.336 163.096C408.407 163.078 408.482 163.074 408.554 163.084C408.627 163.094 408.697 163.118 408.76 163.155C408.824 163.192 408.879 163.241 408.923 163.299C409.438 163.97 461.563 230.825 554.826 251.129C591.931 259.206 626.315 262.255 656.645 264.951C703.394 269.111 743.781 272.654 774.715 293.168C774.838 293.248 774.923 293.373 774.953 293.516C774.982 293.658 774.953 293.806 774.872 293.927C774.823 294.004 774.756 294.067 774.675 294.111C774.595 294.155 774.505 294.179 774.413 294.18Z" fill="#BF6969"/>
<path d="M758.386 311.062C758.274 311.067 758.164 311.036 758.072 310.974C727.362 290.659 687.12 287.082 640.472 282.944C610.109 280.237 575.691 277.189 538.552 269.089C444.909 248.708 392.515 181.523 392 180.851C391.911 180.735 391.873 180.588 391.894 180.443C391.915 180.299 391.993 180.169 392.112 180.081C392.231 179.993 392.38 179.956 392.527 179.977C392.674 179.997 392.807 180.074 392.896 180.191C393.411 180.862 445.536 247.717 538.798 268.021C575.904 276.099 610.288 279.147 640.618 281.844C687.366 285.993 727.754 289.547 758.699 310.06C758.82 310.143 758.903 310.269 758.93 310.411C758.958 310.553 758.927 310.7 758.845 310.82C758.795 310.895 758.727 310.957 758.647 310.999C758.567 311.041 758.477 311.063 758.386 311.062Z" fill="#BF6969"/>
<path d="M478.923 161.912C478.923 161.912 473.85 163.64 475.563 164.784C477.277 165.929 482.966 180.664 481.79 182.579C480.614 184.494 476.93 178.177 474.779 180.279C472.629 182.381 475.754 187.553 479.069 187.168C482.384 186.783 483.941 183.537 483.157 179.465C482.373 175.393 479.696 169.043 479.36 167.656C479.024 166.27 480.536 165.555 482.866 166.886C485.195 168.218 489.294 165.929 490.47 163.442C491.646 160.954 490.661 156.751 490.661 156.751C490.661 156.751 491.434 158.853 487.547 159.81C483.661 160.767 480.278 161.34 478.923 161.912Z" fill="#BF6969"/>
<path d="M456.389 228.096C456.389 228.096 451.326 229.823 453.029 230.968C454.731 232.112 460.432 246.848 459.267 248.763C458.102 250.678 454.395 244.361 452.256 246.463C450.117 248.565 453.23 253.737 456.534 253.352C459.838 252.967 461.406 249.72 460.634 245.648C459.861 241.577 457.128 235.128 456.736 233.785C456.344 232.443 457.856 231.683 460.242 233.015C462.627 234.346 466.67 232.057 467.835 229.57C469 227.083 468.026 222.879 468.026 222.879C468.026 222.879 468.81 224.981 464.912 225.939C461.014 226.896 457.755 227.523 456.389 228.096Z" fill="#BF6969"/>
<path d="M766.214 245.285C763.675 244.018 761.211 242.611 758.834 241.07C755.25 238.715 753.234 239.849 753.749 241.412C754.264 242.974 751.184 254.056 746.592 259.911C742 265.765 742.426 259.085 738.965 257.93C735.504 256.774 733.634 260.131 736.288 264.027C738.942 267.922 744.946 266.745 745.741 264.357C746.536 261.969 752.158 251.503 753.827 248.95C755.496 246.397 756.728 246.54 759.752 249.5C761.043 250.839 762.652 251.842 764.435 252.418C766.218 252.995 768.119 253.126 769.967 252.802C769.967 252.802 763.773 264.467 761.88 268.209C759.987 271.95 758.419 276.682 755.631 276.583C752.842 276.484 749.694 271.081 747.477 274.382C745.259 277.684 751.878 283.307 755.44 281.712C759.002 280.116 761.186 272.787 763.829 267.724C766.472 262.662 774.122 249.324 773.663 247.42C773.203 245.516 769.642 247.475 766.214 245.285Z" fill="#BF6969"/>
<path d="M694.4 267.724C692.605 266.827 690.862 265.831 689.181 264.742C686.638 263.08 685.25 263.884 685.586 264.984C685.922 266.085 683.771 273.931 680.523 278.069C677.275 282.207 677.578 277.486 675.125 276.671C672.672 275.857 671.362 278.234 673.243 280.985C675.125 283.737 679.358 282.9 679.963 281.216C681.643 277.482 683.55 273.851 685.675 270.343C686.862 268.561 687.736 268.638 689.875 270.729C690.791 271.672 691.929 272.377 693.19 272.783C694.451 273.188 695.794 273.28 697.099 273.051C697.099 273.051 692.72 281.293 691.376 283.924C690.032 286.554 688.934 289.921 686.896 289.855C684.858 289.789 682.707 285.938 681.139 288.315C679.571 290.692 684.253 294.631 686.739 293.498C689.226 292.364 690.805 287.192 692.664 283.593C694.523 279.995 699.944 270.586 699.619 269.287C699.294 267.988 696.853 269.276 694.4 267.724Z" fill="#BF6969"/>
<path d="M712.074 283.869C710.724 283.205 709.411 282.471 708.142 281.668C706.227 280.413 705.174 281.018 705.432 281.844C705.69 282.669 704.066 288.59 701.613 291.748C699.16 294.906 699.373 291.297 697.547 290.648C695.722 289.998 694.702 291.825 696.125 293.894C697.547 295.963 700.739 295.347 701.154 294.07C702.427 291.257 703.867 288.519 705.466 285.871C706.362 284.529 707.022 284.584 708.635 286.169C709.324 286.881 710.182 287.414 711.132 287.72C712.082 288.025 713.095 288.093 714.078 287.918C714.078 287.918 710.774 294.136 709.766 296.117C708.758 298.098 707.918 300.64 706.406 300.585C704.894 300.53 703.248 297.636 702.061 299.429C700.874 301.223 704.413 304.184 706.306 303.336C708.198 302.489 709.374 298.582 710.786 295.875C712.197 293.168 716.285 286.07 716.038 285.046C715.792 284.023 713.899 285.035 712.074 283.869Z" fill="#BF6969"/>
<path d="M453.197 161.78C451.411 160.883 449.676 159.891 448 158.809C445.458 157.136 444.069 157.939 444.405 159.04C444.741 160.14 442.59 167.987 439.342 172.135C436.094 176.284 436.397 171.541 433.944 170.727C431.491 169.912 430.181 172.301 432.062 175.041C433.944 177.781 438.178 176.956 438.782 175.272C440.462 171.538 442.369 167.907 444.494 164.399C445.682 162.616 446.555 162.693 448.694 164.784C449.6 165.719 450.725 166.419 451.971 166.824C453.218 167.229 454.547 167.326 455.84 167.106C455.84 167.106 451.45 175.349 450.117 177.979C448.784 180.609 447.675 183.977 445.637 183.911C443.598 183.845 441.448 179.993 439.88 182.37C438.312 184.747 442.994 188.687 445.48 187.553C447.966 186.42 449.546 181.248 451.405 177.649C453.264 174.05 458.685 164.63 458.36 163.343C458.035 162.055 455.616 163.332 453.197 161.78Z" fill="#BF6969"/>
<path d="M810.454 378.346C810.342 378.345 810.233 378.311 810.141 378.247C775.118 355.071 729.221 350.999 676.077 346.278C641.458 343.196 602.224 339.675 559.843 330.485C504.056 318.38 461.608 291.649 435.826 271.4C407.882 249.445 392.93 230.098 392.784 229.911C392.74 229.854 392.708 229.788 392.69 229.718C392.671 229.648 392.667 229.575 392.678 229.503C392.688 229.432 392.713 229.363 392.75 229.301C392.788 229.239 392.837 229.184 392.896 229.141C392.955 229.098 393.022 229.066 393.093 229.048C393.164 229.03 393.238 229.026 393.311 229.037C393.384 229.047 393.454 229.071 393.517 229.108C393.581 229.145 393.636 229.193 393.68 229.251C393.826 229.438 408.71 248.697 436.554 270.564C462.246 290.736 504.526 317.324 560.078 329.418C602.392 338.629 641.592 342.107 676.178 345.177C729.478 349.92 775.499 353.981 810.768 377.333C810.892 377.416 810.977 377.543 811.007 377.687C811.036 377.831 811.007 377.981 810.925 378.104C810.872 378.178 810.801 378.239 810.719 378.281C810.638 378.323 810.547 378.345 810.454 378.346Z" fill="#BF6969"/>
<path d="M792.187 397.605C792.075 397.605 791.965 397.571 791.874 397.505C756.84 374.329 710.942 370.257 657.81 365.536C623.19 362.455 583.946 358.933 541.565 349.744C485.789 337.639 443.341 310.908 417.558 290.659C389.614 268.704 374.662 249.357 374.506 249.17C374.419 249.052 374.383 248.906 374.404 248.763C374.425 248.619 374.501 248.489 374.618 248.4C374.736 248.312 374.886 248.275 375.033 248.295C375.18 248.316 375.313 248.393 375.402 248.51C375.547 248.697 390.443 267.955 418.286 289.822C443.968 309.994 486.259 336.582 541.811 348.677C584.125 357.888 623.325 361.365 657.91 364.436C711.2 369.179 757.232 373.24 792.49 396.592C792.591 396.656 792.669 396.751 792.711 396.863C792.753 396.974 792.757 397.095 792.723 397.209C792.689 397.323 792.619 397.423 792.522 397.494C792.425 397.566 792.308 397.604 792.187 397.605Z" fill="#BF6969"/>
<path d="M773.92 416.863C773.808 416.862 773.698 416.828 773.606 416.764C738.573 393.544 692.675 389.516 639.52 384.795C604.901 381.713 565.667 378.192 523.286 369.003C467.499 356.897 425.051 330.166 399.269 309.917C371.269 287.962 356.373 268.616 356.227 268.429C356.183 268.371 356.151 268.305 356.133 268.235C356.115 268.165 356.11 268.092 356.121 268.021C356.131 267.949 356.156 267.88 356.193 267.818C356.231 267.756 356.28 267.702 356.339 267.658C356.398 267.615 356.465 267.583 356.536 267.565C356.607 267.548 356.682 267.544 356.754 267.554C356.827 267.564 356.897 267.588 356.961 267.625C357.024 267.662 357.079 267.711 357.123 267.768C357.269 267.955 372.154 287.214 399.997 309.081C425.69 329.253 467.97 355.841 523.522 367.935C565.835 377.146 605.035 380.624 639.621 383.694C692.922 388.437 738.942 392.498 774.211 415.851C774.335 415.933 774.42 416.06 774.45 416.204C774.479 416.348 774.45 416.498 774.368 416.621C774.317 416.692 774.25 416.751 774.172 416.793C774.095 416.835 774.008 416.859 773.92 416.863Z" fill="#BF6969"/>
<path d="M755.642 436.122C755.529 436.123 755.419 436.088 755.328 436.023C720.294 412.846 674.397 408.774 621.264 404.053C586.645 400.972 547.4 397.45 505.019 388.261C449.243 376.156 406.795 349.425 381.013 329.176C353.069 307.221 338.117 287.874 337.96 287.687C337.874 287.57 337.837 287.424 337.858 287.28C337.879 287.136 337.956 287.006 338.072 286.917C338.191 286.829 338.34 286.792 338.487 286.812C338.634 286.833 338.767 286.91 338.856 287.027C339.002 287.214 353.898 306.473 381.741 328.339C407.422 348.512 449.714 375.099 505.266 387.194C547.579 396.405 586.779 399.883 621.365 402.953C674.654 407.696 720.686 411.757 755.955 435.109C756.077 435.194 756.16 435.321 756.187 435.465C756.215 435.609 756.184 435.758 756.101 435.88C756.05 435.954 755.982 436.014 755.902 436.056C755.822 436.099 755.732 436.121 755.642 436.122Z" fill="#BF6969"/>
<path d="M450.901 332.279C450.901 332.279 445.122 334.249 447.115 335.581C449.109 336.912 455.56 353.684 454.227 355.874C452.894 358.064 448.627 350.856 446.23 353.255C443.834 355.654 447.35 361.541 451.114 361.101C454.877 360.661 456.714 356.963 455.784 352.374C454.854 347.785 451.786 340.379 451.304 338.849C450.822 337.32 452.637 336.45 455.302 337.98C457.968 339.51 462.627 336.879 463.96 334.051C465.293 331.223 464.184 326.414 464.184 326.414C464.184 326.414 465.069 328.813 460.634 329.902C456.198 330.992 452.48 331.63 450.901 332.279Z" fill="#BF6969"/>
<path d="M707.291 334.249C707.291 334.249 701.523 336.219 703.517 337.551C705.51 338.882 711.962 355.654 710.629 357.833C709.296 360.012 705.029 352.814 702.632 355.214C700.235 357.613 703.752 363.511 707.515 363.071C711.278 362.631 713.115 358.922 712.174 354.344C711.234 349.766 708.176 342.349 707.694 340.819C707.213 339.289 709.027 338.42 711.693 339.95C714.358 341.479 719.018 338.849 720.35 336.021C721.683 333.193 720.574 328.383 720.574 328.383C720.574 328.383 721.459 330.783 717.024 331.872C712.589 332.962 708.848 333.6 707.291 334.249Z" fill="#BF6969"/>
<path d="M679.974 389.747C679.974 389.747 674.195 391.717 676.2 393.048C678.205 394.38 684.634 411.152 683.301 413.353C681.968 415.554 677.757 408.334 675.304 410.733C672.851 413.132 676.424 419.02 680.199 418.58C683.973 418.14 685.743 414.442 684.858 409.853C683.973 405.264 680.859 397.858 680.378 396.328C679.896 394.798 681.71 393.929 684.376 395.459C687.042 396.988 691.712 394.358 693.045 391.53C694.378 388.702 693.258 383.892 693.258 383.892C693.258 383.892 694.154 386.291 689.707 387.381C685.261 388.47 681.531 389.142 679.974 389.747Z" fill="#BF6969"/>
<path d="M421.579 299.253C418.689 297.821 415.881 296.234 413.168 294.499C409.069 291.803 406.829 293.091 407.366 294.884C407.904 296.678 404.443 309.29 399.213 315.981C393.982 322.672 394.453 315.023 390.51 313.714C386.568 312.404 384.429 316.245 387.464 320.669C390.499 325.093 397.331 323.761 398.227 321.043C399.123 318.325 405.552 306.396 407.445 303.512C409.338 300.629 410.805 300.761 414.165 304.14C415.637 305.661 417.472 306.8 419.503 307.453C421.534 308.106 423.698 308.253 425.802 307.881C425.802 307.881 418.79 321.131 416.64 325.368C414.49 329.605 412.698 335.041 409.506 334.931C406.314 334.821 402.786 328.615 400.21 332.444C397.634 336.274 405.238 342.624 409.293 340.808C413.347 338.992 415.856 330.639 418.858 324.862C421.859 319.084 430.595 303.886 430.058 301.752C429.52 299.617 425.477 301.752 421.579 299.253Z" fill="#BF6969"/>
<path d="M748.966 362.642C746.922 361.616 744.937 360.481 743.019 359.241C740.13 357.337 738.539 358.251 738.92 359.516C739.301 360.782 736.859 369.707 733.152 374.428C729.445 379.149 729.792 373.757 727.003 372.832C724.214 371.908 722.702 374.626 724.842 377.752C726.981 380.877 731.83 379.953 732.458 378.016C734.375 373.757 736.552 369.615 738.976 365.613C740.32 363.588 741.328 363.676 743.77 366.064C744.811 367.141 746.109 367.946 747.546 368.407C748.983 368.868 750.514 368.97 752.002 368.706C752.002 368.706 747.04 378.137 745.483 381.108C743.926 384.079 742.694 387.942 740.432 387.865C738.17 387.788 735.65 383.397 733.858 386.115C732.066 388.834 737.419 393.313 740.286 392.025C743.154 390.737 744.923 384.828 747.006 380.745C749.09 376.662 755.306 365.91 754.936 364.37C754.566 362.829 751.733 364.403 748.966 362.642Z" fill="#BF6969"/>
<path d="M769.082 381.042C767.54 380.272 766.044 379.416 764.602 378.478C762.418 377.047 761.242 377.741 761.51 378.687C761.779 379.634 759.954 386.391 757.165 389.934C754.376 393.478 754.622 389.428 752.528 388.724C750.434 388.019 749.28 390.077 750.904 392.432C752.528 394.787 756.157 394.083 756.638 392.641C758.086 389.43 759.728 386.306 761.555 383.287C762.563 381.758 763.325 381.824 765.162 383.628C765.948 384.439 766.926 385.045 768.009 385.392C769.091 385.74 770.245 385.818 771.366 385.62C771.366 385.62 767.603 392.707 766.45 394.963C765.296 397.219 764.355 400.125 762.653 400.059C760.95 399.993 759.046 396.691 757.702 398.738C756.358 400.785 760.379 404.164 762.541 403.14C764.702 402.117 766.035 397.715 767.637 394.633C769.238 391.552 773.898 383.452 773.618 382.297C773.338 381.141 771.165 382.374 769.082 381.042Z" fill="#BF6969"/>
<path d="M407.68 265.997C405.634 264.97 403.648 263.831 401.733 262.585C398.832 260.681 397.253 261.595 397.622 262.86C397.992 264.126 395.562 273.051 391.866 277.783C388.17 282.515 388.506 277.101 385.706 276.176C382.906 275.252 381.405 277.97 383.555 281.095C385.706 284.221 390.533 283.296 391.171 281.359C393.082 277.101 395.259 272.962 397.69 268.968C399.034 266.932 400.03 267.02 402.472 269.408C403.514 270.484 404.812 271.289 406.249 271.75C407.686 272.211 409.217 272.314 410.704 272.049C410.704 272.049 405.709 281.447 404.186 284.452C402.662 287.456 401.397 291.286 399.134 291.209C396.872 291.132 394.363 286.741 392.571 289.459C390.779 292.177 396.122 296.656 398.989 295.369C401.856 294.081 403.626 288.182 405.709 284.089C407.792 279.995 414.008 269.254 413.638 267.724C413.269 266.195 410.435 267.757 407.68 265.997Z" fill="#BF6969"/>
<path d="M396.48 480.593C396.48 480.593 366.789 429.398 373.632 416.379C380.475 403.36 397.981 426.79 397.981 426.79C397.981 426.79 382.76 379.061 391.126 358.24C399.493 337.419 413.952 358.24 414.714 372.987C415.475 387.733 411.667 412.912 411.667 412.912C411.667 412.912 417.76 360.837 432.208 376.464C446.656 392.091 413.952 444.166 413.952 444.166C413.952 444.166 436.016 432.061 435.232 447.644C434.448 463.227 408.632 477.181 408.632 477.181" fill="#BF6969"/>
<path d="M396.704 471.051C396.704 471.051 369.253 445.883 382.626 434.603C395.998 423.323 403.043 446.708 403.043 446.708C403.043 446.708 388.259 374.725 412.16 372.117C436.061 369.509 418.499 434.603 418.499 434.603C418.499 434.603 438.917 406.838 437.539 429.398C436.162 451.958 405.866 471.051 405.866 471.051" stroke="#263238" stroke-miterlimit="10"/>
<path d="M410.2 466.473L391.642 446.72" stroke="#263238" stroke-miterlimit="10"/>
<path d="M406.325 467.992L411.354 410.249" stroke="#263238" stroke-miterlimit="10"/>
<path d="M405.552 463.81L422.184 442.163" stroke="#263238" stroke-miterlimit="10"/>
<path d="M429.598 459.782H378.28L383.41 519.264H424.469L429.598 459.782Z" fill="#263238"/>
<path d="M520.8 389.615C520.8 389.615 525.918 525.757 520.8 551.035C515.682 576.314 493.786 578.218 443.598 574.432C393.411 570.646 319.402 563.02 352.856 549.814C386.31 536.608 485.374 539.7 477.008 547.921C468.642 556.142 422.33 553.61 408.822 548.559C395.315 543.508 462.851 527.067 498.882 531.491C534.912 535.915 554.882 551.718 641.693 573.838C728.504 595.957 791.582 571.306 789.656 554.249C787.73 537.191 733.051 536.498 713.104 536.498" stroke="#263238" stroke-width="2" stroke-linecap="round" stroke-linejoin="round"/>
<path d="M620.48 466.914L647.819 459.232L732.514 465.153L716.811 473.362L620.48 466.914Z" fill="#666666" stroke="#263238" stroke-linecap="round" stroke-linejoin="round"/>
<path d="M732.514 465.153L731.842 553.687L715.31 566.948L716.811 473.362L732.514 465.153Z" fill="#2B2B2B" stroke="#263238" stroke-linecap="round" stroke-linejoin="round"/>
<path d="M623.616 552.983L624.904 555.877L629.686 556.593L632.385 554.062L623.616 552.983Z" fill="#263238" stroke="#263238" stroke-linecap="round" stroke-linejoin="round"/>
<path d="M704.077 565.089L705.354 567.983L710.136 568.698L712.835 566.167L704.077 565.089Z" fill="#263238" stroke="#263238" stroke-linecap="round" stroke-linejoin="round"/>
<path d="M620.48 466.914L619.17 552.059L715.31 566.948L716.811 473.363L620.48 466.914Z" fill="#404040" stroke="#263238" stroke-linecap="round" stroke-linejoin="round"/>
<path d="M628.13 474.958L627.032 546.413L707.694 558.904L708.96 480.373L628.13 474.958Z" fill="black" stroke="#263238" stroke-linecap="round" stroke-linejoin="round"/>
<path d="M631.714 544.873L707.728 556.648L708.96 480.373L632.778 475.266L631.714 544.873Z" fill="#263238" stroke="#263238" stroke-linecap="round" stroke-linejoin="round"/>
<path d="M632.576 488.846L708.714 495.736L708.96 480.373L632.778 475.266L632.576 488.846Z" fill="#BF6969" stroke="#263238" stroke-linecap="round" stroke-linejoin="round"/>
<path d="M645.624 482.111C645.624 482.819 645.411 483.51 645.011 484.098C644.611 484.687 644.042 485.145 643.377 485.416C642.712 485.686 641.98 485.757 641.274 485.619C640.568 485.481 639.919 485.141 639.41 484.64C638.901 484.14 638.554 483.503 638.414 482.809C638.273 482.115 638.346 481.396 638.621 480.743C638.897 480.089 639.363 479.53 639.962 479.137C640.56 478.744 641.264 478.535 641.984 478.535C642.462 478.533 642.936 478.625 643.379 478.804C643.821 478.983 644.223 479.247 644.561 479.579C644.899 479.911 645.168 480.306 645.35 480.741C645.532 481.176 645.625 481.641 645.624 482.111Z" fill="#263238" stroke="#263238" stroke-linecap="round" stroke-linejoin="round"/>
<path d="M655.514 486.712C657.524 486.712 659.154 485.11 659.154 483.135C659.154 481.16 657.524 479.558 655.514 479.558C653.503 479.558 651.874 481.16 651.874 483.135C651.874 485.11 653.503 486.712 655.514 486.712Z" fill="#263238" stroke="#263238" stroke-linecap="round" stroke-linejoin="round"/>
<path d="M672.672 484.158C672.672 484.866 672.458 485.557 672.059 486.145C671.659 486.734 671.09 487.192 670.425 487.463C669.76 487.733 669.028 487.804 668.322 487.666C667.616 487.528 666.967 487.188 666.458 486.687C665.949 486.187 665.602 485.55 665.462 484.856C665.321 484.162 665.394 483.443 665.669 482.79C665.945 482.136 666.411 481.577 667.01 481.184C667.608 480.791 668.312 480.582 669.032 480.582C669.51 480.58 669.984 480.672 670.427 480.851C670.869 481.03 671.271 481.294 671.609 481.626C671.947 481.958 672.215 482.353 672.398 482.788C672.58 483.223 672.673 483.688 672.672 484.158Z" fill="#263238" stroke="#263238" stroke-linecap="round" stroke-linejoin="round"/>
<path d="M686.202 485.182C686.202 485.889 685.988 486.581 685.588 487.169C685.188 487.757 684.62 488.215 683.955 488.486C683.289 488.757 682.558 488.828 681.851 488.69C681.145 488.552 680.497 488.211 679.988 487.711C679.479 487.211 679.132 486.573 678.992 485.88C678.851 485.186 678.923 484.467 679.199 483.813C679.474 483.159 679.941 482.601 680.539 482.208C681.138 481.815 681.842 481.605 682.562 481.605C683.04 481.604 683.514 481.695 683.956 481.874C684.399 482.054 684.8 482.317 685.139 482.649C685.477 482.982 685.745 483.377 685.928 483.811C686.11 484.246 686.203 484.712 686.202 485.182Z" fill="#263238" stroke="#263238" stroke-linecap="round" stroke-linejoin="round"/>
<path d="M658.392 464.592V462.391L662.592 461.334L693.235 463.447L692.877 465.56L689.92 466.903L658.392 464.592Z" fill="#263238"/>
<path d="M625.027 439.908C625.027 439.908 618.486 451.166 619.304 453.983C620.122 456.8 633.629 459.21 639.766 463.227C645.904 467.244 651.627 468.454 655.312 467.244C658.997 466.033 662.267 466.44 660.632 462.016C658.997 457.592 654.08 458.407 650.406 456.393C646.733 454.379 636.474 443.726 635.656 442.516C634.838 441.305 625.027 439.908 625.027 439.908Z" fill="#BF6969" stroke="#263238" stroke-linecap="round" stroke-linejoin="round"/>
<path d="M637 444.354C637 444.354 634.928 448.425 633.55 448.755" stroke="#263238" stroke-linecap="round" stroke-linejoin="round"/>
<path d="M639.419 446.73C639.419 446.73 639.419 450.791 637.347 451.815" stroke="#263238" stroke-linecap="round" stroke-linejoin="round"/>
<path d="M643.552 451.133C643.552 451.133 644.246 452.145 642.174 453.84" stroke="#263238" stroke-linecap="round" stroke-linejoin="round"/>
<path d="M647.36 454.181C647.36 454.181 647.013 454.522 644.941 456.217" stroke="#263238" stroke-linecap="round" stroke-linejoin="round"/>
<path d="M651.582 456.921C650.96 457.311 650.42 457.816 649.992 458.407C648.862 459.841 648.029 461.478 647.539 463.227C642.989 459.946 638.037 457.24 632.8 455.171C628.567 453.441 624.185 452.086 619.707 451.121C619.339 452.025 619.201 453.004 619.304 453.972C620.122 456.778 633.629 459.199 639.766 463.216C645.904 467.233 651.627 468.443 655.312 467.233C658.997 466.022 662.267 466.429 660.632 462.005C659.165 458.055 655.066 458.275 651.582 456.921Z" fill="white" stroke="#263238" stroke-linecap="round" stroke-linejoin="round"/>
<path d="M502.824 275.659L497.09 302.951L500.181 302.511L507.674 277.827L502.824 275.659Z" fill="#263238" stroke="#263238" stroke-linecap="round" stroke-linejoin="round"/>
<path d="M549.181 555.371C549.82 557.718 550.706 559.994 551.824 562.161C553.157 564.252 572.398 574.267 571.323 578.955C570.92 580.771 569.453 583.423 560.638 583.951C551.824 584.479 543.368 577.997 539.269 575.807C532.873 572.407 531.787 570.822 532.549 567.411C533.31 563.999 536.558 552.444 536.558 552.444C540.658 553.823 544.886 554.804 549.181 555.371Z" fill="#BF6969" stroke="#263238" stroke-linecap="round" stroke-linejoin="round"/>
<path d="M541.822 562.271C543.023 561.325 544.406 560.628 545.888 560.222C547.37 559.815 548.921 559.707 550.446 559.905" stroke="#263238" stroke-linecap="round" stroke-linejoin="round"/>
<path d="M544.23 564.307C544.23 564.307 548.374 561.358 551.824 562.161" stroke="#263238" stroke-linecap="round" stroke-linejoin="round"/>
<path d="M547.68 567.025C547.68 567.025 552.854 563.966 555.957 565.661" stroke="#263238" stroke-linecap="round" stroke-linejoin="round"/>
<path d="M551.824 569.733C551.824 569.733 556.304 567.356 559.754 568.379" stroke="#263238" stroke-linecap="round" stroke-linejoin="round"/>
<path d="M539.526 562.282C539.526 564.241 538.574 565.837 537.398 565.837C536.222 565.837 535.259 564.241 535.259 562.282C535.259 560.323 536.211 558.739 537.398 558.739C538.586 558.739 539.526 560.334 539.526 562.282Z" fill="white" stroke="#263238" stroke-linecap="round" stroke-linejoin="round"/>
<path d="M567.134 573.045C564.76 573.045 561.176 573.474 559.294 575.807C556.349 579.483 556.091 580.539 556.091 580.539C551.358 577.238 546.357 574.323 541.139 571.824C537.973 570.426 535.188 568.315 533.008 565.661C532.829 566.332 532.683 566.915 532.582 567.367C531.787 570.778 532.874 572.363 539.302 575.763C543.402 577.964 551.858 584.424 560.672 583.907C569.486 583.39 570.954 580.726 571.357 578.911C571.682 577.403 569.822 575.268 567.134 573.045Z" fill="white" stroke="#263238" stroke-linecap="round" stroke-linejoin="round"/>
<path d="M561.848 191.823C561.848 191.823 581.112 194.189 584.248 200.946C587.384 207.703 600.074 262.464 601.104 265.501C602.134 268.539 627.928 273.953 643.418 273.953C658.907 273.953 652.702 275.648 647.898 278.685C643.093 281.723 628.634 285.112 613.838 287.137C599.043 289.162 589.075 287.808 584.606 281.392C580.138 274.977 573.541 243.877 569.072 222.967C564.603 202.058 561.848 191.823 561.848 191.823Z" fill="white" stroke="#263238" stroke-linecap="round" stroke-linejoin="round"/>
<path d="M584.203 200.957C581.112 194.2 561.803 191.834 561.803 191.834C561.803 191.834 564.547 201.97 569.027 222.934C570.483 229.779 572.174 237.714 573.933 245.516C575.378 245.285 577.058 244.977 578.995 244.559C583.778 243.535 589.926 240.058 594.059 237.45C590.24 221.702 585.85 204.545 584.203 200.957Z" fill="#BF6969" stroke="#263238" stroke-linecap="round" stroke-linejoin="round"/>
<path d="M572.566 239.178C573.395 242.974 574.258 246.815 575.131 250.557C582.461 248.934 589.258 245.528 594.899 240.652C594.115 237.472 593.309 234.181 592.491 230.924C586.606 235.182 579.778 238.01 572.566 239.178Z" fill="#263238" stroke="#263238" stroke-linecap="round" stroke-linejoin="round"/>
<path d="M668.494 261.54C668.494 261.54 672.123 253.836 672.515 253.385C672.907 252.934 682.058 252.284 679.65 255.421C679.336 255.817 673.613 256.587 673.613 256.587L672.246 259.746L668.494 261.54Z" fill="white" stroke="#263238" stroke-linecap="round" stroke-linejoin="round"/>
<path d="M675.696 336.483C663.667 325.324 619.629 323.277 601.776 319.921C597.453 319.106 594.014 318.369 591.259 317.72C586.018 293.784 573.093 247.728 570.819 222.912C570.259 216.783 567.829 188.225 556.259 190.998C533.859 196.379 494.659 207.362 493.282 235.216C492.162 257.655 501.648 281.514 505.837 303.336C507.92 314.231 509.869 323.376 511.851 331.014H511.683C511.683 331.014 530.6 415.179 530.6 429.035C530.6 442.89 527.845 450.329 527.162 470.611C526.478 490.893 535.483 555.349 537.544 556.67C539.605 557.99 544.074 558.023 546.146 557.341C548.218 556.659 548.554 557.682 549.237 555.316C549.92 552.95 558.197 506.718 560.582 457.713C562.968 408.708 566.72 372.249 581.504 362.114C596.288 351.978 656.152 353.31 656.544 360.76C656.936 368.21 622.72 438.554 624.109 439.907C625.498 441.261 633.069 443.286 634.771 442.615C636.474 441.943 668.819 390.561 679.146 372.986C689.472 355.412 687.736 347.631 675.696 336.483Z" fill="#BF6969" stroke="#263238" stroke-linecap="round" stroke-linejoin="round"/>
<path d="M556.203 191.053C543.973 193.991 526.736 198.613 513.385 206.724C518.739 214.35 533.254 233.807 543.715 236.305C556.035 239.244 561.31 204.699 560.179 191.394C558.938 190.818 557.527 190.697 556.203 191.053Z" fill="#263238" stroke="#263238" stroke-linecap="round" stroke-linejoin="round"/>
<path d="M556.64 185.55C556.64 185.55 564.57 245.747 586.611 276.891L592.771 281.227C593.891 281.227 573.126 235.205 563.651 185.484L556.64 185.55Z" fill="#263238" stroke="#263238" stroke-linecap="round" stroke-linejoin="round"/>
<path d="M555.218 198.933C553.941 197.271 552.675 195.983 551.533 194.442C548.072 189.732 549.405 179.696 553.347 176.196C553.016 175.476 552.618 174.788 552.16 174.138C547.68 168.108 530.006 171.189 525.482 176.141C526.636 178.128 527.625 180.204 528.438 182.348C529.558 185.716 530.51 189.501 529.782 193.056C528.853 197.656 525.056 199.329 521.774 202.201C525.515 208.463 535.942 222.593 540.557 224.75C546.034 227.369 553.526 205.359 555.218 198.933Z" fill="white" stroke="#263238" stroke-linecap="round" stroke-linejoin="round"/>
<path d="M550.122 180.939C550.787 179.185 551.954 177.657 553.482 176.537C558.656 173.357 571.29 169.219 574.526 163.177C574.85 159.924 574.5 156.64 573.497 153.523C572.494 150.406 570.86 147.521 568.691 145.041C561.254 136.138 546.997 131.384 535.506 135.06C520.408 139.924 517.104 153.636 520.195 163.827C521.931 169.549 524.944 175.327 526.915 179.498C530.174 180.334 535.326 180.73 541.229 181.005C544.192 181.143 547.161 181.121 550.122 180.939Z" fill="#263238" stroke="#263238" stroke-linecap="round" stroke-linejoin="round"/>
<path d="M539.47 174.546C539.47 174.546 537.331 163.188 532.851 163.188C528.371 163.188 526.288 173.742 528.371 179.025C530.454 184.307 534.341 182.249 534.341 182.249C535.816 185.659 537.577 188.942 539.605 192.065C542.002 195.29 549.976 202.938 559.149 202.938C563.024 202.938 568.4 183.581 569.598 175.954C570.797 168.328 570.786 165.114 568.702 158.952C566.619 152.789 557.95 156.608 550.491 161.879C545.887 165.225 542.118 169.556 539.47 174.546Z" fill="white" stroke="#263238" stroke-linecap="round" stroke-linejoin="round"/>
<path d="M544.846 160.657C544.846 160.657 554.355 157.95 562.766 167.348C570.942 176.493 580.541 171.233 583.923 165.962C589.254 157.664 595.493 163.321 595.493 153.207C595.493 143.093 588.594 142.323 581.515 144.216C574.437 146.109 578.301 134.102 568.646 132.837C558.992 131.571 556.427 137.239 553.851 139.165" fill="#263238"/>
<path d="M544.846 160.657C544.846 160.657 554.355 157.95 562.766 167.348C570.942 176.493 580.541 171.233 583.923 165.962C589.254 157.664 595.493 163.321 595.493 153.207C595.493 143.093 588.594 142.323 581.515 144.216C574.437 146.109 578.301 134.102 568.646 132.837C558.992 131.571 556.427 137.239 553.851 139.165" stroke="#263238" stroke-linecap="round" stroke-linejoin="round"/>
<path d="M569.296 170.199C569.296 170.199 566.787 170.397 566.574 172.257C566.361 174.116 567.616 180.884 567.201 184.362C566.787 187.84 562.184 187.036 559.877 185.187" fill="white"/>
<path d="M569.296 170.199C569.296 170.199 566.787 170.397 566.574 172.257C566.361 174.116 567.616 180.884 567.201 184.362C566.787 187.84 562.184 187.036 559.877 185.187" stroke="#263238" stroke-linecap="round" stroke-linejoin="round"/>
<path d="M558.88 168.757C558.88 168.757 553.28 164.652 549.92 169.164L558.88 168.757Z" fill="white"/>
<path d="M558.88 168.757C558.88 168.757 553.28 164.652 549.92 169.164" stroke="#263238" stroke-linecap="round" stroke-linejoin="round"/>
<path d="M557.995 172.047L557.794 174.722C557.794 174.722 553.19 176.361 550.267 173.687" fill="white"/>
<path d="M557.995 172.047L557.794 174.722C557.794 174.722 553.19 176.361 550.267 173.687" stroke="#263238" stroke-linecap="round" stroke-linejoin="round"/>
<path d="M549.461 352.704C539.483 357.034 528.694 359.265 517.787 359.252C523.309 385.07 530.544 420.517 530.544 429.09C530.544 442.945 527.789 450.384 527.106 470.666C526.422 490.948 535.427 555.404 537.488 556.725C539.549 558.045 544.018 558.078 546.09 557.396C548.162 556.714 548.498 557.737 549.181 555.371C549.864 553.005 558.141 506.773 560.526 457.768C562.912 408.763 566.664 372.304 581.448 362.169C596.232 352.033 642.454 362.62 642.802 370.048C643.149 377.476 622.72 438.554 624.109 439.907C625.498 441.261 633.069 443.286 634.771 442.615C636.474 441.943 668.819 390.561 679.146 372.986C689.472 355.412 687.736 347.675 675.696 336.483C663.656 325.291 619.629 323.277 601.776 319.921C597.453 319.106 594.014 318.369 591.259 317.72C588.269 321.604 575.949 341.215 549.461 352.704Z" fill="#263238"/>
<path d="M642.802 370.048C642.802 370.048 661.55 381.24 669.928 381.989" stroke="#6B6B6B" stroke-linecap="round" stroke-linejoin="round"/>
<path d="M631.12 364.039C631.12 364.039 646.341 379.744 657.754 386.479" stroke="#6B6B6B" stroke-linecap="round" stroke-linejoin="round"/>
<path d="M633.405 376.002C633.405 376.002 644.818 393.951 654.685 398.441" stroke="#6B6B6B" stroke-linecap="round" stroke-linejoin="round"/>
<path d="M584.707 361.057C584.707 361.057 592.312 352.825 622.787 347.598" stroke="#6B6B6B" stroke-linecap="round" stroke-linejoin="round"/>
<path d="M609.818 354.322C609.818 354.322 629.597 352.121 640.248 350.58" stroke="#6B6B6B" stroke-linecap="round" stroke-linejoin="round"/>
<path d="M563.36 444.045C563.36 444.045 552.709 481.462 545.104 503.857" stroke="#6B6B6B" stroke-linecap="round" stroke-linejoin="round"/>
<path d="M558.074 481.429C554.313 498.388 547.072 514.415 536.794 528.53" stroke="#6B6B6B" stroke-linecap="round" stroke-linejoin="round"/>
<path d="M549.461 352.704C539.483 357.034 528.694 359.265 517.787 359.252C523.309 385.07 530.544 420.517 530.544 429.09C530.544 442.945 527.789 450.384 527.106 470.666C526.422 490.948 535.427 555.404 537.488 556.725C539.549 558.045 544.018 558.078 546.09 557.396C548.162 556.714 548.498 557.737 549.181 555.371C549.864 553.005 558.141 506.773 560.526 457.768C562.912 408.763 566.664 372.304 581.448 362.169C596.232 352.033 642.454 362.62 642.802 370.048C643.149 377.476 622.72 438.554 624.109 439.907C625.498 441.261 633.069 443.286 634.771 442.615C636.474 441.943 668.819 390.561 679.146 372.986C689.472 355.412 687.736 347.675 675.696 336.483C663.656 325.291 619.629 323.277 601.776 319.921C597.453 319.106 594.014 318.369 591.259 317.72C588.269 321.604 575.949 341.215 549.461 352.704Z" stroke="#263238" stroke-linecap="round" stroke-linejoin="round"/>
<path d="M514.506 383.353L516.578 388.03C516.799 388.524 517.159 388.947 517.615 389.249C518.071 389.551 518.604 389.72 519.154 389.736L523.074 389.835C523.665 389.852 524.247 389.691 524.744 389.375C525.24 389.058 525.626 388.601 525.851 388.063L528.091 382.627L514.506 383.353Z" fill="white" stroke="#263238" stroke-linecap="round" stroke-linejoin="round"/>
<path d="M601.026 296.876C601.91 294.829 598.282 288.458 597.374 286.763C589.534 272.214 567.381 271.873 557.626 284.562C554.075 289.184 552.171 295.138 547.546 298.681C537.622 306.264 523.454 297.019 512.826 295.842C489.675 293.278 473.805 315.167 474.421 335.999C474.992 355.401 487.536 374.219 505.434 382.451C506.33 382.869 507.248 383.254 508.166 383.606C529.133 391.739 549.214 381.856 560.806 364.084C564.278 358.746 567.269 353.134 570.786 347.829C572.645 345.034 575.008 342.404 578.155 341.16C584.405 338.673 592.39 340.555 599.088 338.695C603.725 337.408 610.568 335.075 612.774 330.353C615.205 325.126 612.091 324.972 607.634 325.236C603.176 325.5 598.091 321.406 597.61 313.648C597.128 305.889 601.026 296.876 601.026 296.876Z" fill="#757575" stroke="#263238" stroke-linecap="round" stroke-linejoin="round"/>
<path d="M597.8 298.054C598.685 296.018 595.056 289.635 594.16 287.951C586.376 273.403 564.166 273.062 554.4 285.75C550.861 290.372 548.957 296.326 544.32 299.87C534.397 307.441 520.24 298.208 509.6 297.03C486.45 294.466 470.59 316.355 471.206 337.187C471.778 356.589 484.322 375.408 502.208 383.639C503.115 384.057 504.022 384.443 504.952 384.795C525.918 392.927 546 383.034 557.592 365.261C561.053 359.935 564.054 354.322 567.571 349.018C569.419 346.223 571.794 343.592 574.941 342.338C581.179 339.862 589.176 341.743 595.862 339.884C600.51 338.596 607.354 336.263 609.549 331.542C611.99 326.315 608.877 326.16 604.408 326.425C599.939 326.689 594.866 322.595 594.395 314.836C593.925 307.078 597.8 298.065 597.8 298.054Z" fill="#757575"/>
<path opacity="0.19" d="M607.6 325.313C603.12 325.588 598.058 321.483 597.576 313.725C597.094 305.966 601.026 296.931 601.026 296.931C601.91 294.885 598.282 288.513 597.374 286.818C591.069 275.021 575.277 272.567 564.323 278.839L522.166 386.545C537.779 386.941 551.835 377.906 560.773 364.16C564.245 358.823 567.235 353.211 570.752 347.906C572.6 345.111 574.974 342.481 578.122 341.237C584.371 338.75 592.357 340.632 599.054 338.772C603.691 337.485 610.534 335.152 612.741 330.43C615.171 325.148 612.058 324.994 607.6 325.313Z" fill="white"/>
<path opacity="0.19" d="M525.504 286.114C527.518 284.969 529.686 284.11 531.944 283.56C524.35 276.583 512.098 275.857 503.104 280.985L460.936 388.691C471.598 388.955 481.533 384.828 489.608 377.807L525.504 286.114Z" fill="white"/>
<path d="M597.8 298.054C598.685 296.018 595.056 289.635 594.16 287.951C586.376 273.403 564.166 273.062 554.4 285.75C550.861 290.372 548.957 296.326 544.32 299.87C534.397 307.441 520.24 298.208 509.6 297.03C486.45 294.466 470.59 316.355 471.206 337.187C471.778 356.589 484.322 375.408 502.208 383.639C503.115 384.057 504.022 384.443 504.952 384.795C525.918 392.927 546 383.034 557.592 365.261C561.053 359.935 564.054 354.322 567.571 349.018C569.419 346.223 571.794 343.592 574.941 342.338C581.179 339.862 589.176 341.743 595.862 339.884C600.51 338.596 607.354 336.263 609.549 331.542C611.99 326.315 608.877 326.16 604.408 326.425C599.939 326.689 594.866 322.595 594.395 314.836C593.925 307.078 597.8 298.065 597.8 298.054Z" stroke="#263238" stroke-linecap="round" stroke-linejoin="round"/>
<path d="M580.149 303.843L585.245 315.827L709.901 253.011L705.544 243.789L580.149 303.843Z" fill="#263238" stroke="#263238" stroke-linecap="round" stroke-linejoin="round"/>
<path d="M595.84 306.968C595.84 306.968 571.95 343.658 563.73 347.323C555.509 350.988 549.931 339.036 554.96 331.069C559.989 323.101 595.84 306.968 595.84 306.968Z" fill="white" stroke="#263238" stroke-linecap="round" stroke-linejoin="round"/>
<path d="M590.716 315.996L582.627 299.62C582.019 298.39 580.512 297.877 579.26 298.474L572.59 301.655C571.337 302.252 570.815 303.733 571.423 304.964L579.512 321.339C580.119 322.569 581.627 323.082 582.879 322.485L589.549 319.304C590.801 318.707 591.324 317.226 590.716 315.996Z" fill="white" stroke="#263238" stroke-linecap="round" stroke-linejoin="round"/>
<path d="M562.338 331.988L554.753 315.381C554.183 314.134 552.692 313.576 551.422 314.136L544.658 317.119C543.388 317.679 542.821 319.144 543.391 320.392L550.976 336.998C551.545 338.246 553.037 338.803 554.306 338.244L561.071 335.261C562.341 334.701 562.908 333.235 562.338 331.988Z" fill="white" stroke="#263238" stroke-linecap="round" stroke-linejoin="round"/>
<path d="M523.813 352.484L512.198 328.406C512.111 328.226 512.062 328.032 512.053 327.833C512.044 327.634 512.076 327.436 512.147 327.25C512.218 327.064 512.327 326.894 512.467 326.75C512.606 326.607 512.774 326.492 512.96 326.414C513.139 326.328 513.334 326.277 513.533 326.266C513.733 326.254 513.932 326.281 514.121 326.346C514.309 326.41 514.483 326.51 514.631 326.641C514.78 326.772 514.901 326.93 514.987 327.107L526.602 351.186C526.771 351.542 526.791 351.95 526.657 352.321C526.523 352.691 526.245 352.995 525.885 353.167C525.704 353.26 525.506 353.316 525.302 353.333C525.099 353.349 524.894 353.324 524.7 353.26C524.507 353.197 524.328 353.095 524.176 352.962C524.023 352.828 523.9 352.666 523.813 352.484Z" fill="white" stroke="#263238" stroke-linecap="round" stroke-linejoin="round"/>
<path d="M512.49 329.363L476.235 358.526C475.687 358.964 475.309 359.573 475.162 360.251C475.015 360.93 475.109 361.638 475.429 362.257L477.826 366.945C478.177 367.632 478.779 368.164 479.512 368.434C480.245 368.703 481.055 368.69 481.779 368.397L523.566 351.516L521.998 348.787L494.85 353.585L514.17 333.215L512.49 329.363Z" fill="white" stroke="#263238" stroke-linecap="round" stroke-linejoin="round"/>
<path d="M553.874 340.39C553.467 340.049 552.94 339.88 552.407 339.92C551.875 339.959 551.379 340.203 551.029 340.599C546.795 344.659 541.765 347.831 536.245 349.92C532.666 351.354 529.001 352.567 525.269 353.552C524.328 353.783 523.387 354.014 522.446 354.179C520.206 354.575 516.555 355.445 516.846 358.317C516.906 359.037 517.231 359.711 517.759 360.213C518.288 360.715 518.985 361.01 519.719 361.044C520.454 361.077 521.175 360.847 521.749 360.396C522.323 359.945 522.711 359.303 522.838 358.592C528.016 357.567 533.074 356.029 537.936 354.003C544.118 351.691 549.661 347.986 554.12 343.185C554.291 342.986 554.42 342.755 554.5 342.507C554.581 342.259 554.61 341.997 554.587 341.737C554.564 341.478 554.49 341.225 554.367 340.994C554.245 340.763 554.077 340.557 553.874 340.39Z" fill="white" stroke="#263238" stroke-linecap="round" stroke-linejoin="round"/>
<path d="M511.09 368.232C511.036 367.645 510.807 367.086 510.43 366.627C510.054 366.167 509.547 365.828 508.975 365.651C508.402 365.475 507.789 365.469 507.213 365.635C506.637 365.801 506.124 366.131 505.739 366.583C505.353 367.036 505.113 367.59 505.049 368.176C504.984 368.763 505.098 369.355 505.376 369.878C505.654 370.4 506.083 370.831 506.61 371.114C507.136 371.397 507.736 371.52 508.334 371.468C508.731 371.433 509.118 371.322 509.471 371.141C509.825 370.959 510.138 370.711 510.394 370.411C510.65 370.11 510.843 369.763 510.962 369.39C511.082 369.016 511.125 368.623 511.09 368.232Z" fill="white" stroke="#263238" stroke-linecap="round" stroke-linejoin="round"/>
<path d="M533.781 371.369C533.727 370.781 533.497 370.222 533.12 369.762C532.743 369.303 532.236 368.964 531.663 368.788C531.089 368.612 530.476 368.607 529.899 368.774C529.323 368.941 528.81 369.272 528.426 369.725C528.041 370.179 527.802 370.734 527.739 371.321C527.676 371.908 527.792 372.5 528.071 373.022C528.351 373.545 528.782 373.974 529.31 374.256C529.838 374.537 530.439 374.658 531.037 374.604C531.837 374.532 532.575 374.15 533.089 373.544C533.604 372.937 533.852 372.155 533.781 371.369Z" fill="white" stroke="#263238" stroke-linecap="round" stroke-linejoin="round"/>
<path d="M624.904 282.416L623.582 283.043L628.454 293.883L629.765 293.223L624.904 282.416Z" fill="white" stroke="#263238" stroke-linecap="round" stroke-linejoin="round"/>
<path d="M633.808 278.146L632.498 278.773L637.28 289.415L638.59 288.755L633.808 278.146Z" fill="white" stroke="#263238" stroke-linecap="round" stroke-linejoin="round"/>
<path d="M613.346 287.951L612.024 288.579L617.03 299.672L618.33 299.011L613.346 287.951Z" fill="white" stroke="#263238" stroke-linecap="round" stroke-linejoin="round"/>
<path d="M642.723 273.876L641.413 274.503L646.106 284.958L647.405 284.298L642.723 273.876Z" fill="white" stroke="#263238" stroke-linecap="round" stroke-linejoin="round"/>
<path d="M602.448 293.168L601.126 293.795L606.245 305.13L607.555 304.47L602.448 293.168Z" fill="white" stroke="#263238" stroke-linecap="round" stroke-linejoin="round"/>
<path d="M594.16 311.238L595.47 310.578L590.229 299.022L588.907 299.65L594.16 311.238Z" fill="white" stroke="#263238" stroke-linecap="round" stroke-linejoin="round"/>
<path d="M651.638 269.606L650.317 270.233L654.92 280.49L656.23 279.83L651.638 269.606Z" fill="white" stroke="#263238" stroke-linecap="round" stroke-linejoin="round"/>
<path d="M696.214 248.257L694.893 248.884L699.451 258.293L700.75 257.633L696.214 248.257Z" fill="white" stroke="#263238" stroke-linecap="round" stroke-linejoin="round"/>
<path d="M678.384 256.796L677.062 257.424L681.811 267.229L683.11 266.569L678.384 256.796Z" fill="white" stroke="#263238" stroke-linecap="round" stroke-linejoin="round"/>
<path d="M687.299 252.527L685.978 253.154L690.626 262.761L691.936 262.101L687.299 252.527Z" fill="white" stroke="#263238" stroke-linecap="round" stroke-linejoin="round"/>
<path d="M660.554 265.336L659.232 265.964L664.171 276.154L665.47 275.494L660.554 265.336Z" fill="white" stroke="#263238" stroke-linecap="round" stroke-linejoin="round"/>
<path d="M669.48 261.066L668.158 261.705L672.986 271.686L674.296 271.026L669.48 261.066Z" fill="white" stroke="#263238" stroke-linecap="round" stroke-linejoin="round"/>
<path d="M706.44 244.185L516.902 336.78" stroke="white" stroke-width="0.5" stroke-linecap="round" stroke-linejoin="round"/>
<path d="M707.504 245.747L517.966 338.343" stroke="white" stroke-width="0.5" stroke-linecap="round" stroke-linejoin="round"/>
<path d="M708.557 247.321L519.03 339.917" stroke="white" stroke-width="0.5" stroke-linecap="round" stroke-linejoin="round"/>
<path d="M709.621 248.884L520.094 341.479" stroke="white" stroke-width="0.5" stroke-linecap="round" stroke-linejoin="round"/>
<path d="M710.685 250.447L521.158 343.042" stroke="white" stroke-width="0.5" stroke-linecap="round" stroke-linejoin="round"/>
<path d="M711.749 252.02L522.222 344.616" stroke="white" stroke-width="0.5" stroke-linecap="round" stroke-linejoin="round"/>
<path d="M705.6 243.789L708.691 232.432C708.691 232.432 718.469 234.555 730.229 224.035C735.792 229.7 739.377 236.958 740.466 244.757C740.466 244.757 723.811 248.455 720.53 256.774L709.957 253.011L705.6 243.789Z" fill="#263238" stroke="#263238" stroke-linecap="round" stroke-linejoin="round"/>
<path d="M716.542 238.924C716.505 238.591 716.367 238.276 716.146 238.019C715.926 237.763 715.633 237.576 715.305 237.483C714.977 237.391 714.628 237.396 714.302 237.498C713.977 237.6 713.69 237.795 713.477 238.058C713.265 238.321 713.137 238.64 713.109 238.975C713.081 239.309 713.155 239.644 713.322 239.937C713.488 240.231 713.739 240.469 714.043 240.621C714.348 240.774 714.691 240.835 715.03 240.795C715.483 240.743 715.896 240.517 716.179 240.166C716.462 239.816 716.593 239.369 716.542 238.924Z" fill="white" stroke="#263238" stroke-linecap="round" stroke-linejoin="round"/>
<path d="M722.12 236.261C722.083 235.928 721.945 235.613 721.726 235.357C721.506 235.1 721.214 234.913 720.886 234.82C720.558 234.727 720.21 234.731 719.885 234.832C719.559 234.933 719.272 235.127 719.059 235.389C718.846 235.651 718.716 235.969 718.687 236.303C718.658 236.637 718.73 236.972 718.895 237.266C719.06 237.559 719.309 237.798 719.612 237.952C719.915 238.107 720.258 238.169 720.597 238.132C721.051 238.082 721.467 237.857 721.753 237.506C722.038 237.156 722.17 236.708 722.12 236.261Z" fill="white" stroke="#263238" stroke-linecap="round" stroke-linejoin="round"/>
<path d="M727.698 233.587C727.66 233.254 727.523 232.939 727.303 232.682C727.084 232.426 726.791 232.239 726.464 232.146C726.136 232.052 725.788 232.057 725.462 232.158C725.137 232.259 724.85 232.453 724.637 232.715C724.423 232.977 724.294 233.295 724.265 233.629C724.236 233.963 724.308 234.298 724.473 234.591C724.637 234.885 724.887 235.124 725.19 235.278C725.493 235.433 725.835 235.495 726.174 235.458C726.629 235.408 727.045 235.183 727.33 234.832C727.616 234.481 727.748 234.034 727.698 233.587Z" fill="white" stroke="#263238" stroke-linecap="round" stroke-linejoin="round"/>
<path d="M720.966 248.059C720.928 247.725 720.791 247.41 720.57 247.153C720.35 246.897 720.057 246.71 719.729 246.618C719.401 246.525 719.052 246.53 718.726 246.632C718.401 246.735 718.114 246.93 717.901 247.192C717.689 247.455 717.561 247.774 717.533 248.109C717.505 248.443 717.579 248.778 717.746 249.072C717.912 249.365 718.163 249.603 718.467 249.755C718.772 249.908 719.115 249.969 719.454 249.929C719.907 249.877 720.32 249.651 720.603 249.3C720.886 248.95 721.017 248.503 720.966 248.059Z" fill="white" stroke="#263238" stroke-linecap="round" stroke-linejoin="round"/>
<path d="M726.544 245.395C726.506 245.062 726.369 244.747 726.149 244.491C725.93 244.234 725.638 244.047 725.31 243.954C724.982 243.861 724.634 243.865 724.309 243.966C723.983 244.068 723.696 244.261 723.483 244.523C723.27 244.785 723.14 245.103 723.111 245.437C723.082 245.771 723.154 246.106 723.319 246.4C723.484 246.693 723.733 246.932 724.036 247.087C724.339 247.241 724.682 247.303 725.021 247.266C725.475 247.216 725.891 246.991 726.176 246.641C726.462 246.29 726.594 245.842 726.544 245.395Z" fill="white" stroke="#263238" stroke-linecap="round" stroke-linejoin="round"/>
<path d="M732.122 242.776C732.084 242.443 731.947 242.128 731.727 241.872C731.507 241.615 731.215 241.428 730.888 241.335C730.56 241.242 730.211 241.246 729.886 241.347C729.561 241.448 729.274 241.642 729.06 241.904C728.847 242.166 728.718 242.484 728.689 242.818C728.66 243.152 728.732 243.487 728.897 243.78C729.061 244.074 729.311 244.313 729.614 244.467C729.917 244.622 730.259 244.684 730.598 244.647C731.053 244.597 731.469 244.372 731.754 244.021C732.04 243.671 732.172 243.223 732.122 242.776Z" fill="white" stroke="#263238" stroke-linecap="round" stroke-linejoin="round"/>
<path d="M680.154 268.087C680.154 268.087 673.534 258.183 673.635 257.083C674.094 252.505 681.554 263.157 683.267 264.852C684.981 266.547 684.645 268.572 682.92 270.597C681.195 272.621 669.872 273.293 669.872 273.293L680.154 268.087Z" fill="white" stroke="#263238" stroke-linecap="round" stroke-linejoin="round"/>
<path d="M684.398 265.248C684.398 265.248 678.664 256.521 680.434 254.838C682.954 252.45 683.402 256.202 685.182 259.416C686.963 262.629 688.744 265.347 687.658 266.316C685.664 268.087 684.398 265.248 684.398 265.248Z" fill="white" stroke="#263238" stroke-linecap="round" stroke-linejoin="round"/>
<path d="M687.96 263.014C687.96 263.014 682.774 253.33 683.995 252.604C685.216 251.877 686.963 253.968 688.744 257.171C690.525 260.373 692.317 263.102 691.219 264.082C689.226 265.887 687.96 263.014 687.96 263.014Z" fill="white" stroke="#263238" stroke-linecap="round" stroke-linejoin="round"/>
<path d="M692.507 264.368C692.507 264.368 687.848 254.716 688.554 253.968C690.256 252.141 691.522 255.322 693.302 258.535C695.083 261.749 696.864 264.467 695.778 265.435C693.773 267.229 692.507 264.368 692.507 264.368Z" fill="white" stroke="#263238" stroke-linecap="round" stroke-linejoin="round"/>
<path d="M508.099 210.301C508.099 210.301 498.21 216.155 488.578 223.253C478.946 230.352 445.234 311.469 446.958 314.517C448.683 317.566 536.39 328.714 542.237 329.726C548.083 330.739 551.197 332.092 554.96 331.069C558.723 330.045 563.226 324.653 563.226 324.653C563.226 324.653 567.706 323.982 568.378 321.615C569.05 319.249 567 319.249 564.592 318.226C562.184 317.203 560.47 313.824 558.746 312.151C557.021 310.478 548.778 312.481 545.675 313.835C542.573 315.189 537.421 317.555 534.666 317.896C531.91 318.237 516.096 316.201 502.331 308.762C488.566 301.322 484.411 298.967 482.384 297.273C480.357 295.578 513.341 244.548 513.341 244.548" fill="#BF6969"/>
<path d="M508.099 210.301C508.099 210.301 498.21 216.155 488.578 223.253C478.946 230.352 445.234 311.469 446.958 314.517C448.683 317.566 536.39 328.714 542.237 329.726C548.083 330.739 551.197 332.092 554.96 331.069C558.723 330.045 563.226 324.653 563.226 324.653C563.226 324.653 567.706 323.982 568.378 321.615C569.05 319.249 567 319.249 564.592 318.226C562.184 317.203 560.47 313.824 558.746 312.151C557.021 310.478 548.778 312.481 545.675 313.835C542.573 315.189 537.421 317.555 534.666 317.896C531.91 318.237 516.096 316.201 502.331 308.762C488.566 301.322 484.411 298.967 482.384 297.273C480.357 295.578 513.341 244.548 513.341 244.548" stroke="#263238" stroke-linecap="round" stroke-linejoin="round"/>
<path d="M568.378 321.615C569.072 319.249 567 319.249 564.592 318.226C562.184 317.202 560.47 313.824 558.746 312.151C557.021 310.478 548.778 312.481 545.675 313.835C542.573 315.189 537.421 317.555 534.666 317.896C531.91 318.237 516.096 316.201 502.331 308.762C488.566 301.322 484.411 298.967 482.384 297.273C481.712 296.722 484.781 290.923 489.205 283.362C479.59 282.008 470.264 279.12 461.597 274.811C453.04 294.741 446.152 313.098 446.958 314.517C448.672 317.555 536.39 328.714 542.237 329.726C548.083 330.739 551.197 332.092 554.96 331.069C558.723 330.045 563.226 324.653 563.226 324.653C563.226 324.653 567.694 323.982 568.378 321.615Z" fill="white" stroke="#263238" stroke-linecap="round" stroke-linejoin="round"/>
<path d="M482.384 297.273C482.384 297.273 470.994 293.916 463.221 302.566" stroke="#263238" stroke-linecap="round" stroke-linejoin="round"/>
<path d="M459.917 278.751C469.168 282.801 482.216 284.65 488.062 285.354C489.955 282.053 492.162 278.377 494.48 274.58C484.325 273.499 474.39 270.94 465.002 266.987C463.266 270.949 461.552 274.9 459.917 278.751Z" fill="#263238" stroke="#263238" stroke-linecap="round" stroke-linejoin="round"/>
<defs>
<clipPath id="clip0_853_2">
<rect width="422.343" height="422.343" fill="white"/>
</clipPath>
</defs>
</svg>
